<svg width="395" height="305" xmlns="http://www.w3.org/2000/svg">
 <g>
  <title>background</title>
  <rect x="-1" y="-1" width="397" height="307" id="canvas_background" fill="none"/>
 </g>

 <g>
  <title>Layer 1</title>
  <g id="svg_1">
   <path d="m201.7,60.8c-11.9,0 -21.5,-9.6 -21.5,-21.5s9.6,-21.5 21.5,-21.5s21.5,9.6 21.5,21.5s-9.6,21.5 -21.5,21.5zm0,-32.1c-5.9,0 -10.7,4.8 -10.7,10.7c0,5.9 4.8,10.7 10.7,10.7c5.9,0 10.7,-4.8 10.7,-10.7c0,-5.9 -4.8,-10.7 -10.7,-10.7z" id="svg_2" fill="#ffffff"/>
  </g>
  <g id="svg_3">
   <path d="m61,38.2c-5.6,0 -10.2,-4.6 -10.2,-10.2s4.6,-10.2 10.2,-10.2s10.2,4.6 10.2,10.2s-4.6,10.2 -10.2,10.2zm0,-10.9c-0.4,0 -0.7,0.3 -0.7,0.7c0,0.7 1.4,0.7 1.4,0c0,-0.4 -0.3,-0.7 -0.7,-0.7z" id="svg_4" fill="#ffffff"/>
  </g>
  <path d="m393,150.5c-24.3,-21.4 -40.8,-45.5 -56.7,-68.9c-29.4,-43.1 -54.8,-80.3 -117.4,-80.3l-172.9,0c-21.3,0 -39.7,15.2 -44.2,35.6l-0.4,-0.1l-0.5,6c0,0 0,0 0,0l-0.4,4.8l0.3,0.1c0.5,24.3 20.2,43.9 44.5,44.3c37.3,10.6 50.7,24.7 67.7,42.5c12,12.5 25.5,26.8 49.7,42.6c56.7,37.1 109.6,133.3 110.2,134.2l1.5,2.8l120.5,0l0,-95.1l0,-10.8l0,-56.1l-1.9,-1.6zm-347,-138.3l172.8,0c56.9,0 79.6,33.4 108.5,75.6c15.2,22.2 32.3,47.3 56.7,69.2l0,51.3l-15.4,0c-9.1,0 -16.5,-7.4 -16.5,-16.5l0,-7.8c0,-15 -12.2,-27.3 -27.3,-27.3l-12.4,0c-5,0 -9.6,-2.2 -12.8,-6.1c-3.1,-3.8 -4.4,-8.8 -3.4,-13.7l2.7,-13.3c2.8,-13.4 -4.9,-26.9 -17.9,-31.3l-30.1,-10.3l-0.4,-0.1c-53.5,-14 -81.6,-14.2 -102.2,-14.3c-15.3,-0.1 -25.4,-0.2 -39,-5.7c-1.2,-0.5 -2.7,-1 -4.4,-1.6c0,0 0,0 0,0c-0.4,-0.1 -0.8,-0.3 -1.2,-0.4c0,0 0,0 0,0c-0.3,-0.1 -0.7,-0.2 -1,-0.3c0,0 0,0 0,0c-0.1,0 -0.1,0 -0.2,-0.1c-0.7,-0.2 -1.5,-0.4 -2.2,-0.7c0,0 0,0 0,0c0,0 -0.1,0 -0.1,0c-0.8,-0.2 -1.6,-0.5 -2.5,-0.7c0,0 0,0 0,0c-0.5,-0.1 -0.9,-0.3 -1.4,-0.4c0,0 0,0 0,0c-0.6,-0.2 -1.2,-0.3 -1.9,-0.5c-0.3,-0.1 -0.6,-0.2 -0.9,-0.3c0,0 0,0 0,0c-0.5,-0.1 -0.9,-0.2 -1.4,-0.4c0,0 0,0 0,0c-0.1,0 -0.2,-0.1 -0.3,-0.1c-0.9,-0.2 -1.8,-0.5 -2.7,-0.7c0,0 0,0 0,0c-0.4,-0.1 -0.9,-0.2 -1.3,-0.3c-0.6,-0.2 -1.2,-0.3 -1.8,-0.5c0,0 0,0 0,0c-0.5,-0.1 -1.1,-0.3 -1.6,-0.4c-0.9,-0.2 -1.7,-0.4 -2.6,-0.6c-0.3,-0.1 -0.6,-0.1 -0.9,-0.2c0,0 0,0 0,0c-0.5,-0.1 -0.9,-0.2 -1.4,-0.3c0,0 0,0 0,0c-0.7,-0.2 -1.3,-0.3 -2,-0.5c0,0 0,0 0,0c-2.1,-0.5 -4.2,-1 -6.3,-1.5c-0.3,-0.1 -0.6,-0.1 -1,-0.2c0,0 -0.1,0 -0.1,0c-1.7,-0.4 -3.4,-0.8 -5.1,-1.2c0,0 -0.1,0 -0.1,0c-1.1,-0.2 -2.1,-0.5 -3.2,-0.7c0,0 0,0 0,0c-0.4,-0.1 -0.8,-0.2 -1.2,-0.3c0,0 -0.1,0 -0.1,0c-0.8,-0.2 -1.6,-0.4 -2.4,-0.5c0,0 0,0 0,0c-0.4,-0.1 -0.8,-0.2 -1.3,-0.3c0,0 -0.1,0 -0.1,0c-0.4,-0.1 -0.7,-0.2 -1.1,-0.2c-0.9,-0.2 -1.8,-0.4 -2.7,-0.6c0,0 -0.1,0 -0.1,0c-0.7,-0.2 -1.4,-0.3 -2.1,-0.4c0,0 0,0 0,0c-1.1,-0.2 -2.2,-0.5 -3.3,-0.7c-0.1,0 -0.3,-0.1 -0.4,-0.1c0,0 0,0 0,0c-0.5,-0.1 -1,-0.2 -1.5,-0.3c0,0 0,0 -0.1,0c-0.7,-0.1 -1.4,-0.3 -2,-0.4c0,0 0,0 -0.1,0c-0.5,-0.1 -1,-0.2 -1.5,-0.3c0,0 0,0 0,0c-0.7,-0.2 -1.4,-0.3 -2.2,-0.4c0,0 0,0 0,0c-1.6,-0.3 -3.3,-0.7 -4.9,-1c0,0 0,0 0,0c-0.7,-0.1 -1.4,-0.3 -2.1,-0.4c0,0 0,0 0,0c-2.2,-0.4 -4.3,-0.9 -6.4,-1.3c-0.1,0 -0.3,-0.1 -0.4,-0.1c0,0 0,0 -0.1,0c-0.3,-0.1 -0.6,-0.1 -0.9,-0.2c0,0 0,0 -0.1,0c-0.6,-0.1 -1.2,-0.2 -1.7,-0.3c-0.9,-0.2 -1.7,-0.3 -2.5,-0.5c-0.5,-0.1 -1.1,-0.2 -1.6,-0.3c0,0 0,0 -0.1,0c-1.2,-0.2 -2.3,-0.5 -3.5,-0.7c-0.8,-0.2 -1.6,-0.3 -2.4,-0.5c3.2,-15.9 17.1,-27.3 33.2,-27.3zm246.2,220.3c-8.5,0 -15.4,-6.9 -15.4,-15.4c0,-8.5 6.9,-15.4 15.4,-15.4c8.5,0 15.4,6.9 15.4,15.4c0,8.5 -6.9,15.4 -15.4,15.4z" id="svg_5" fill="#ffffff"/>
 </g>
</svg>